# xmcd
#
# Track frame offsets: 
#        150
#        15303
#        31982
#        53783
#        55922
#        71287
#        87688
#        108839
#        111991
#        127880
#        144922
#        164219
#        172819
#        191480
#        197895
#
# Disc length: 2846 seconds
#
# Revision: 2
# Processed by: cddbd v1.5.2PL0 Copyright (c) Steve Scherf et al.
# Submitted via: ExactAudioCopy v0.99pb5
#
DISCID=c90b1c0f
DTITLE=Teedra Moses - Cognac and Conversation
DYEAR=2015
DGENRE=Soul
TTITLE0=R U Scared
TTITLE1=All I Ever Wanted featuring Rick Ross
TTITLE2=International Playboi
TTITLE3=Biscayne Blvd (Interlude)
TTITLE4=Get It Right
TTITLE5=Cognac and Conversation featuring Rick Ross
TTITLE6=Only U
TTITLE7=Sketches of Heartbreak (Interlude)
TTITLE8=Beautifu: Chaos
TTITLE9=Skin Diver
TTITLE10=That One featuring Anthony Hamilton
TTITLE11=Sound Off (Interlude)
TTITLE12=Yesterday Ain't Tomorrow
TTITLE13=Wish U Were Here (Interlude)
TTITLE14=No Regrets
EXTD=
EXTT0=
EXTT1=
EXTT2=
EXTT3=
EXTT4=
EXTT5=
EXTT6=
EXTT7=
EXTT8=
EXTT9=
EXTT10=
EXTT11=
EXTT12=
EXTT13=
EXTT14=
PLAYORDER=
